PathFileType	4	(X/Y/Z)	C:/Users/opensim2020/Desktop/walking_exp_matlab/subject03_walking04_straight_04.trc	
DataRate	CameraRate	NumFrames	NumMarkers	Units	OrigDataRate	OrigDataStartFrame	OrigNumFrames	
100.00	100.00	6	51	mm	100.00	3062	293	
Frame#	Time	LFHD			RFHD			LBHD			RBHD			C7			T10			CLAV			STRN			RBAK			LSHO			LUPA			LELB			LFRM			LWRA			LWRB			LFIN			RSHO			RUPA			RELB			RFRM			RWRA			RWRB			RFIN			LASI			RASI			LPSI			RPSI			LTHI			LKNE			LTIB			LANK			LHEE			LTOE			RTHI			RKNE			RTIB			RANK			RHEE			RTOE			*39			*40			*41			*42			*43			*44			*45			*46			*47			*48			*49			*50			
		X1	Y1	Z1	X2	Y2	Z2	X3	Y3	Z3	X4	Y4	Z4	X5	Y5	Z5	X6	Y6	Z6	X7	Y7	Z7	X8	Y8	Z8	X9	Y9	Z9	X10	Y10	Z10	X11	Y11	Z11	X12	Y12	Z12	X13	Y13	Z13	X14	Y14	Z14	X15	Y15	Z15	X16	Y16	Z16	X17	Y17	Z17	X18	Y18	Z18	X19	Y19	Z19	X20	Y20	Z20	X21	Y21	Z21	X22	Y22	Z22	X23	Y23	Z23	X24	Y24	Z24	X25	Y25	Z25	X26	Y26	Z26	X27	Y27	Z27	X28	Y28	Z28	X29	Y29	Z29	X30	Y30	Z30	X31	Y31	Z31	X32	Y32	Z32	X33	Y33	Z33	X34	Y34	Z34	X35	Y35	Z35	X36	Y36	Z36	X37	Y37	Z37	X38	Y38	Z38	X39	Y39	Z39	X40	Y40	Z40	X41	Y41	Z41	X42	Y42	Z42	X43	Y43	Z43	X44	Y44	Z44	X45	Y45	Z45	X46	Y46	Z46	X47	Y47	Z47	X48	Y48	Z48	X49	Y49	Z49	X50	Y50	Z50	X51	Y51	Z51	

37	0.360	1678.02283	1164.84363	1611.47949	1548.92505	1197.39819	1618.38757	1702.86389	1289.39844	1563.12671	1574.77307	1316.25757	1570.33997	1645.56519	1330.96106	1411.29565	1649.25208	1374.05164	1099.21155	1623.41223	1211.79883	1331.87317	1631.93066	1173.35876	1165.57446	1563.07483	1401.83130	1234.84753	1780.79578	1224.66357	1374.54126	1861.23694	1178.71069	1193.40735	1876.63635	1131.11438	1081.56067	1859.58154	1050.23865	982.82678	1812.22900	984.92267	891.73627	1866.47900	993.18768	884.39941	1844.56030	937.16565	826.15234	1473.96631	1285.33813	1351.92847	1404.80811	1321.94385	1132.15234	1387.66516	1323.25488	1019.85419	1382.33252	1323.11011	882.44885	1410.85522	1298.34717	783.40723	1373.72656	1338.54663	783.19940	1379.62793	1323.07849	709.89178	1760.87964	1205.41516	932.84857	1521.23755	1213.16162	929.79163	1711.34155	1367.54504	960.27289	1564.14490	1372.69189	959.06622	1794.77759	1308.69495	639.45081	1757.08496	1347.98389	465.35147	1759.74756	1445.74048	292.67456	1719.38123	1518.96338	93.77155	1684.42615	1566.32019	66.98267	1684.44788	1375.54736	34.31186	1476.01929	1214.92151	635.14691	1519.36243	1135.99524	473.58670	1514.83276	1116.61108	290.34195	1557.18640	1058.55530	80.04717	1613.58704	1087.68005	40.88444	1569.11108	912.75269	70.95971	1650.45984	1258.93701	1671.47778																																	 
38	0.370	1677.40479	1156.45520	1610.72400	1548.22632	1188.93762	1617.70422	1702.07373	1280.85474	1561.83362	1573.97595	1307.59949	1569.05310	1644.48511	1322.04626	1410.31506	1648.17480	1364.84692	1098.12305	1622.75476	1202.62793	1331.01489	1631.64063	1163.94739	1164.76074	1561.91418	1392.05920	1233.56995	1780.05481	1215.96814	1373.72839	1860.43494	1170.16248	1192.50500	1875.71240	1122.54016	1080.72888	1858.25671	1041.49182	982.27448	1810.51123	975.98053	891.48083	1864.77734	984.04102	883.97717	1842.54810	927.88953	826.01233	1472.97156	1275.66406	1350.76624	1404.16858	1312.44006	1130.88464	1387.48376	1314.07043	1018.59479	1382.57166	1314.41980	881.16235	1411.40405	1289.98706	782.12354	1374.36255	1330.12781	781.91766	1380.49133	1314.94336	708.57581	1760.61035	1196.53442	932.02057	1521.05322	1203.06445	928.76453	1710.12427	1358.39514	959.13269	1562.91772	1362.84924	958.13434	1794.60730	1301.27185	639.09039	1757.26465	1341.42786	465.02484	1759.73364	1441.57520	293.44781	1719.56055	1517.89001	95.74737	1684.51038	1565.59436	69.58057	1684.43530	1375.43201	34.22815	1476.75452	1206.88672	633.80658	1519.31079	1128.74707	471.84711	1514.38123	1106.32336	289.72336	1556.32886	1043.95850	80.50982	1612.78223	1071.94165	40.84138	1568.27808	897.35352	73.11952	1649.82288	1250.73950	1670.37878																																	 
39	0.380	1676.70349	1148.07959	1610.06995	1547.57104	1180.26038	1616.98328	1701.23230	1272.29187	1560.66211	1573.06006	1298.88342	1567.87769	1643.26343	1313.08826	1409.29993	1647.05139	1355.39929	1097.10303	1621.97119	1193.45264	1330.21387	1631.23889	1154.65210	1164.00598	1560.58789	1382.05884	1232.23450	1779.29700	1207.21582	1373.02856	1859.63782	1161.74097	1191.64404	1874.71057	1114.11426	1079.90247	1856.88892	1032.97058	981.50116	1808.91748	967.36505	891.03485	1863.18359	975.36713	883.35577	1840.70227	919.08893	825.61560	1471.86804	1265.52515	1349.64514	1403.62000	1302.40820	1129.78271	1387.30212	1304.59473	1017.37457	1382.77148	1305.48218	879.98431	1412.03979	1281.21594	781.01593	1374.94983	1321.36621	780.70081	1381.51575	1306.46155	707.35052	1760.31592	1187.26624	931.07965	1520.78406	1192.84619	927.92969	1708.95520	1348.98938	958.14154	1561.60046	1352.80212	957.33569	1794.33606	1293.45630	638.63947	1757.40869	1334.52905	464.61557	1759.71570	1437.12244	294.22290	1719.55469	1516.49048	97.66184	1684.56689	1564.65039	72.29356	1684.36511	1375.31641	34.13167	1477.60315	1198.41028	632.75635	1519.17590	1120.98999	470.50137	1513.85876	1096.71155	289.03384	1555.55261	1031.41614	80.47253	1611.82251	1059.27869	40.27753	1567.87585	884.77106	74.38045	1649.09180	1242.53699	1669.37073																																	 
40	0.390	1676.02844	1139.62610	1609.52734	1546.86597	1171.68506	1616.38452	1700.31689	1263.70508	1559.64954	1572.15576	1290.21973	1566.88684	1642.04822	1304.10693	1408.34985	1645.94714	1345.79443	1096.07751	1621.23450	1184.15161	1329.64417	1630.70203	1144.56445	1163.10022	1559.19543	1372.00830	1231.02100	1778.52161	1198.48352	1372.44934	1858.75000	1153.48206	1190.84399	1873.59338	1105.83948	1078.96655	1855.66296	1024.73645	980.70538	1807.41187	959.13696	890.43903	1861.64185	967.08368	882.55304	1838.98438	910.77942	824.95410	1470.82947	1255.62573	1348.75940	1402.87378	1292.24561	1128.78345	1387.02258	1294.79358	1016.32147	1383.03857	1296.09790	878.91040	1412.76526	1272.22473	779.94836	1375.44067	1312.39392	779.66504	1382.52637	1297.64136	706.22400	1759.98682	1177.84131	930.28668	1520.42664	1182.56812	927.23792	1707.70129	1339.39441	957.16620	1560.38074	1342.61328	956.69629	1793.98193	1285.20093	638.14117	1757.42432	1327.14844	464.12451	1759.75305	1432.44324	295.12259	1719.85229	1515.25244	99.93438	1684.87219	1563.76208	75.48331	1684.38831	1375.15991	34.12250	1478.18787	1189.42297	632.06036	1518.98633	1112.14966	469.58087	1513.32886	1087.68103	288.26535	1554.97363	1022.40509	79.30931	1610.98889	1049.91919	38.97672	1567.90906	875.25647	74.33987	1648.24597	1234.31335	1668.48376																																	 
41	0.400	1675.27368	1131.10864	1609.09900	1546.11792	1162.95044	1615.86279	1699.31995	1255.06982	1558.72412	1571.13538	1281.30322	1565.88171	1640.74609	1295.05811	1407.40686	1645.08435	1336.14282	1095.19421	1620.45825	1174.73096	1329.12097	1630.27612	1135.53552	1162.92932	1557.66138	1361.87036	1229.89563	1777.71362	1189.73083	1372.00769	1857.78625	1145.29272	1190.02954	1872.52148	1097.85449	1078.10999	1854.49988	1016.82434	979.83484	1806.02441	951.25232	889.55933	1860.24487	959.24353	881.60217	1837.40991	902.95544	824.01978	1469.76965	1245.54382	1348.09705	1402.15234	1281.72314	1127.88647	1386.69385	1284.68677	1015.36719	1383.32397	1286.29749	877.86139	1413.48792	1262.84534	778.94507	1376.08337	1302.88391	778.63538	1383.59497	1288.47461	705.18262	1759.48889	1168.12842	929.48474	1519.98572	1172.04626	926.72052	1706.68005	1329.54028	956.29614	1559.27478	1332.32520	956.22284	1793.59753	1276.44275	637.54449	1757.54590	1319.33521	463.62439	1759.74292	1427.38708	296.00034	1719.95105	1513.62683	102.28189	1685.02881	1562.52197	78.77164	1684.41370	1374.94409	34.06564	1478.45398	1179.44946	631.83160	1518.65735	1102.34058	469.06271	1512.93408	1079.15540	287.26282	1554.78271	1015.67487	77.63589	1610.57751	1043.76843	37.29843	1568.41589	868.76538	72.28177	1647.28967	1225.96411	1667.73889																																	 
42	0.410	1674.50293	1122.63831	1608.72192	1545.24585	1154.23193	1615.42444	1698.35010	1246.43506	1557.92017	1570.00696	1272.37976	1564.99451	1639.44043	1285.88049	1406.60669	1644.11084	1326.08643	1094.30005	1619.59753	1165.19287	1328.58411	1629.62793	1125.35962	1162.54419	1556.09570	1351.70178	1228.90320	1776.86865	1180.95691	1371.62024	1856.83813	1137.13721	1189.25012	1871.43457	1090.05542	1077.14636	1853.35266	1009.21704	978.84399	1804.73853	943.71387	888.56744	1858.93079	951.81183	880.44525	1836.09717	895.62476	822.87415	1468.70667	1235.42712	1347.44299	1401.46130	1270.93970	1126.98926	1386.46216	1274.15857	1014.35901	1383.53735	1276.21143	876.93201	1414.23401	1253.18652	778.10706	1376.67505	1292.91125	777.63812	1384.52649	1278.93127	704.10754	1758.88708	1158.16248	928.78845	1519.36389	1161.40894	926.24438	1705.76404	1319.37781	955.46246	1558.29980	1321.86230	955.67126	1793.20764	1267.19019	636.90033	1757.72400	1310.96826	463.05310	1759.81091	1421.99707	296.91064	1720.24243	1511.83276	104.93257	1685.22241	1561.09607	82.41185	1684.42896	1374.71716	34.05108	1478.54688	1168.17896	632.16339	1518.47754	1091.90894	468.69504	1512.65308	1071.30884	285.89764	1554.87012	1011.46118	75.36784	1610.46680	1040.55811	35.69818	1569.43213	864.88770	68.26395	1646.38965	1217.65698	1667.15283																																	 
